<svg width="218" height="51" viewBox="0 0 218 51" fill="none" xmlns="http://www.w3.org/2000/svg">
<g clip-path="url(#clip0_5646_24)">
<path d="M9.172 29.8984L5.797 39.0859L11.4845 43.9609L20.297 40.6484L9.172 29.8984Z" stroke="#0000FF"/>
<path d="M29.4845 10.4609L38.8595 7.86719L42.422 10.3672L40.8282 19.2109L29.4845 10.4609Z" stroke="#0000FF"/>
<path d="M20.8435 49.7948L20.0922 49.1446L18.7966 49.0442C17.6685 48.9568 17.4067 48.9058 16.7708 48.6493L16.0406 48.3547L15.4148 48.6156C14.8846 48.8366 14.6303 48.8842 13.7513 48.9267L12.7136 48.977L12.5789 48.6547C12.5049 48.4774 12.4004 48.3323 12.3469 48.3323C12.2933 48.3323 11.7541 48.4907 11.1487 48.6842L10.0478 49.0362L9.615 48.8168C9.07874 48.5451 9.04707 48.5453 8.12096 48.8278L7.36588 49.0581L6.63695 48.9052C5.85904 48.7419 5.61104 48.7557 3.27893 49.0923L2.37554 49.2227L1.90891 48.901C1.48723 48.6102 1.40151 48.584 1.01885 48.6288C0.633631 48.6739 0.586623 48.659 0.498126 48.4649C0.419156 48.2916 0.439187 48.1634 0.604518 47.7837C0.7943 47.3478 0.817023 47.1024 0.937774 44.1853C1.05062 41.4592 1.05097 40.9371 0.940474 40.1444C0.797545 39.1188 0.797727 39.1185 1.40412 39.2296C1.61956 39.2691 1.81139 39.286 1.83041 39.267C1.84943 39.2481 1.91086 37.8893 1.96692 36.2474C2.06005 33.5197 2.03466 32.69 1.85796 32.6862C1.82378 32.6855 1.64824 32.5562 1.46786 32.399L1.13991 32.1131L0.862723 30.5221C0.710273 29.6471 0.564025 28.5071 0.537727 27.9889C0.493807 27.1235 0.505907 27.0208 0.686037 26.7294C0.793905 26.5548 0.91125 26.412 0.946804 26.412C0.982354 26.412 1.12827 26.535 1.27105 26.6853C1.41383 26.8356 1.64657 27.0418 1.78824 27.1436L2.04582 27.3286L1.98659 25.7585C1.93697 24.4433 1.89704 24.118 1.74058 23.7543C1.63507 23.509 1.57603 23.2351 1.6049 23.1247C1.63933 22.9931 1.54155 22.722 1.3051 22.2937L0.954208 21.658L1.07301 20.6164C1.16972 19.7686 1.1712 19.4462 1.08101 18.8829C0.949931 18.0643 0.669847 17.1855 0.367732 16.6449L0.150191 16.2557L0.331409 14.838L0.512628 13.4203L0.32508 12.6462L0.137532 11.8722L0.359967 11.0391L0.582402 10.206L0.411978 9.71325C0.0573406 8.68789 0.0503717 8.54273 0.326158 7.92551C0.807806 6.84755 0.874706 5.53589 0.544123 3.65204C0.431066 3.00777 0.362482 2.82204 0.183362 2.67503C-0.132809 2.41554 -0.0314814 1.99962 0.420831 1.7003C0.685853 1.52491 0.74536 1.43688 0.713069 1.26797C0.676407 1.0762 0.700948 1.05722 0.969011 1.07005C1.13208 1.07785 1.93473 1.00745 2.75269 0.913592L4.23988 0.742954L5.97886 0.992159L7.71785 1.24136L9.95607 1.14047L12.1943 1.03958L12.6961 1.34001L13.1979 1.64045L14.9514 1.69795C17.2542 1.77347 18.204 1.61634 19.5531 0.936659C20.1148 0.653665 20.8003 0.396647 21.4021 0.243457L22.3583 0L23.4514 0.341011L24.5444 0.682022L25.4708 0.371814L26.3972 0.061605L27.4431 0.386211C28.1548 0.607054 28.8763 0.920264 29.7005 1.36604L30.9119 2.02127L32.3449 1.99696L33.7779 1.97265L33.8462 1.75168C33.8838 1.63015 33.9981 1.24234 34.1003 0.889892L34.286 0.249088H35.3309C36.1016 0.249088 36.7558 0.317498 37.8241 0.509795C38.6207 0.653184 39.6846 0.835619 40.1883 0.915208L41.1041 1.05991L41.6073 0.834106C41.9267 0.690769 42.4103 0.574331 42.9314 0.515297C43.6682 0.431837 43.8037 0.440167 44.2525 0.596557C44.5275 0.692407 45.1503 0.833251 45.6365 0.909554C46.4155 1.03182 46.6619 1.03386 47.7136 0.926683L48.9068 0.805076L49.5697 1.28107C49.9344 1.54287 50.2943 1.80557 50.3697 1.86486C50.4502 1.92814 50.5479 2.24186 50.6062 2.62446L50.7056 3.27627L50.2163 4.16001C49.8308 4.85622 49.7525 5.05992 49.8472 5.11994C49.9134 5.16184 50.0166 5.19674 50.0767 5.19748C50.1368 5.19822 50.2959 5.36487 50.4303 5.56781L50.6746 5.93679L50.703 8.55092C50.7305 11.094 50.5968 16.4873 50.5038 16.5803C50.4785 16.6057 50.1414 16.5897 49.7549 16.5447L49.0522 16.4628L48.9467 17.0217C48.8887 17.3291 48.8659 17.7347 48.896 17.923C48.9428 18.2158 48.8996 18.3541 48.5974 18.8783C48.403 19.2154 48.244 19.5213 48.244 19.5581C48.244 19.6706 48.7757 20.3285 49.3268 20.8976L49.8497 21.4378L49.6562 22.0877L49.4626 22.7376L49.7067 24.3318C49.9878 26.1675 49.9744 26.3542 49.4293 28.1945C49.1847 29.0204 49.1378 29.2804 49.2238 29.3335C49.2851 29.3714 49.6018 29.4292 49.9276 29.4619L50.5201 29.5214L50.5778 31.7011C50.8854 43.3308 50.9079 44.8589 50.8027 46.9624C50.7444 48.1291 50.6853 49.0967 50.6715 49.1125C50.6575 49.1284 49.9513 48.8366 49.1018 48.4641L47.5571 47.7869L46.862 48.0855L46.1669 48.3842L46.0891 48.8699L46.0113 49.3557L44.6749 49.6425L43.3384 49.9293L42.4104 49.588C41.4972 49.2521 41.4713 49.2481 40.7983 49.3342C40.2217 49.4079 40.0327 49.397 39.5949 49.2644L39.0756 49.1072L38.3374 49.4405L37.5991 49.7738L36.1378 49.812C35.334 49.8332 34.3184 49.8135 33.8809 49.7687C32.935 49.6716 30.7882 49.8802 29.1496 50.2284C28.2226 50.4254 28.0366 50.4378 27.087 50.3662C26.5129 50.3229 25.5395 50.2218 24.9239 50.1415L23.8045 49.9954L22.7983 50.2246C22.2448 50.3506 21.7477 50.4517 21.6934 50.4494C21.6392 50.447 21.2567 50.1524 20.8435 49.7948ZM16.2915 42.6411C18.9167 41.6542 21.0446 40.811 21.0203 40.7673C20.9578 40.6547 9.1006 29.2007 9.0209 29.1758C8.98482 29.1646 8.1257 31.4208 7.11176 34.1896L5.26821 39.2238L5.52076 39.4387C5.65967 39.5569 7.02623 40.7302 8.55755 42.046C10.0889 43.3618 11.3816 44.4377 11.4302 44.4369C11.4788 44.4361 13.6664 43.6279 16.2915 42.6411ZM44.8843 37.9688C46.1147 34.9912 47.1384 32.4919 47.1589 32.4147C47.1864 32.3116 42.2259 28.9189 28.4306 19.6058C18.1094 12.638 9.62323 6.93714 9.57248 6.93714C9.46177 6.93714 4.12721 9.34618 4.01723 9.44584C3.97504 9.48407 4.02944 9.56833 4.13809 9.63309C4.24676 9.69785 11.5914 17.318 20.4594 26.5667L36.5832 43.3826H39.6151H42.647L44.8843 37.9688ZM42.0139 15.1867C42.4795 12.5859 42.8785 10.3965 42.9007 10.3214C42.929 10.2248 42.3623 9.77889 40.9624 8.79672C39.8742 8.03322 38.9476 7.40854 38.9032 7.40854C38.8071 7.40854 28.5977 10.2315 28.561 10.2682C28.5471 10.2822 31.3691 12.4806 34.8322 15.1536C38.2952 17.8266 41.1374 19.9915 41.148 19.9646C41.1586 19.9376 41.5483 17.7875 42.0139 15.1867Z" fill="#9B3425"/>
<path d="M67.8756 11.1797H69.9694L70.2506 11.336L70.6256 11.6172L70.8756 11.8047L71.0944 12.1172L71.2194 12.3984V36.5235L71.1569 37.0235L71.0319 37.5547L70.8131 38.1172L70.4069 38.586L69.9694 38.8672L69.5221 38.987L68.5631 39.2109H75.6256L77.6256 39.3672L80.9381 39.6797L83.2506 39.711L88.1881 38.8985L91.5006 37.3985L93.6256 35.836L95.1256 34.461L96.2819 32.8673L97.1881 31.3673L97.9069 29.711L98.4381 26.8985L98.8131 24.7735L98.3444 21.6797L97.4694 18.6172L96.2819 16.586L94.5319 14.5235L91.6256 12.7422L88.5006 11.6172L84.6256 10.8985L75.8444 10.8672L76.0006 12.4297L80.1881 12.2734L82.5631 12.4609L86.1881 13.5234L89.0631 15.3672L91.6569 18.1797L93.2819 21.8359L93.6881 25.5234L93.5319 28.9297L92.9694 31.1172L91.9069 33.7422L90.0006 35.8984L87.1881 37.5547L82.8444 38.2109H79.2819L78.1569 37.8359L76.5631 36.6484L76.0319 35.8359L76.0632 12.7109L75.8757 10.8672L67.9382 11.0859L67.8756 11.1797Z" fill="#837670"/>
<path d="M125.073 11.8617L122.643 12.0827L120.654 12.7456L117.516 15.1763L115.572 20.789L115.395 25.8713L116.146 29.1417L118.002 33.0308L121.317 36.6105L125.073 38.1573L129.095 38.2457L132.365 36.7873L134.089 34.6218L135.68 31.0862L136.21 24.7223L134.929 18.5793L132.409 14.7786L128.344 12.2153C128.344 12.2153 126.443 12.0385 125.692 11.9501C124.941 11.8617 125.294 10.2266 125.294 10.2266L128.653 10.2708L132.012 10.8895L134.929 12.1711L137.315 13.9831L139.834 17.165L140.762 20.2586L141.381 24.8548L140.851 29.3184L139.481 32.2794L135.68 37.0966L132.409 38.8644L127.902 40.0576H123.792L119.903 39.3505L116.146 37.185L113.273 34.5334L111.948 32.4562L110.401 28.2136L110.312 24.1919L110.754 21.3193L112.169 17.5628L115.085 13.7179L119.461 11.243L123.924 10.3149L125.383 10.2708L125.471 11.9501L125.073 11.8617Z" fill="#837670" stroke="#0000FF" stroke-opacity="0.040201"/>
<path d="M152.297 10.3984L151.609 12.7109L151.297 14.2109L151.109 15.2734L151.485 16.0859L152.11 14.8359L152.985 13.5234L154.36 12.8984L162.172 12.7109L162.109 36.8359L161.922 37.3359L161.359 38.3359L160.797 38.586L158.922 38.7735V39.3985L164.734 39.1484L170.922 39.3985L171.047 38.836L168.047 38.5859L167.047 37.7109L166.734 36.6484L166.859 12.5234L172.859 12.5859L175.109 13.2109L175.984 14.0859L176.234 15.7734L176.547 16.3984L177.109 15.5234L176.797 10.3984L174.859 10.8359L164.797 10.9609L153.859 10.7734L152.672 10.2109L152.297 10.3984Z" fill="#837670"/>
<path d="M187.873 38.1136L186.857 38.5998L184.559 38.7323L184.514 39.572L189.818 39.2627L194.06 39.5278L194.193 38.644L192.072 38.5556L191.674 37.981L191.63 37.4065L193.132 32.9429L198.966 32.8103L204.8 32.9871L206.965 38.423L205.904 38.9533L206.17 39.4836L211.208 39.3952L215.76 39.4836L215.715 38.7323L213.285 38.5997L211.561 37.0529L209.749 33.65L210.147 33.0313L213.462 32.2358L216.732 31.838L216.688 31.1309H208.556L199.938 9.78516L190.878 31.1309L194.016 30.9542L198.966 17.6959C198.966 17.6959 204.004 30.2471 203.916 30.689C203.827 31.131 203.606 30.9984 203.606 30.9984L194.016 31.0425L190.834 31.2193L187.873 38.1136Z" fill="#837670"/>
<path d="M190.91 31.0508L190.821 31.2656L193.985 31.082L193.969 31.0586L194.047 30.875L192.578 30.7383L190.91 31.0508Z" fill="#837670"/>
<path d="M20.8233 49.7615L20.0899 49.1372L19.0997 49.0555C17.8631 48.9535 17.2867 48.8402 16.5889 48.5619L16.0406 48.3433L15.4561 48.5772C14.9558 48.7773 13.7315 48.9614 12.8034 48.9761C12.7533 48.9769 12.6673 48.8583 12.6123 48.7126C12.5573 48.5668 12.4505 48.4239 12.3749 48.3949C12.2993 48.3658 11.7382 48.4926 11.1278 48.6765L10.0182 49.0109L9.61992 48.8174C9.11551 48.5723 8.89987 48.5747 8.05789 48.8344C7.41776 49.0319 7.34114 49.0376 6.82045 48.9259C6.0564 48.7619 5.41196 48.7739 3.96985 48.9787C2.39308 49.2027 2.36232 49.2013 1.89897 48.8874C1.58776 48.6765 1.41584 48.6238 1.03886 48.6238C0.610006 48.6238 0.562735 48.6042 0.512248 48.4028C0.480349 48.2757 0.519149 48.026 0.603538 47.815C0.837793 47.2296 0.931792 45.7995 0.959972 42.3924L0.986293 39.2105L1.42824 39.2399L1.8702 39.2694L1.93736 37.428C1.9743 36.4152 2.00862 34.9569 2.01364 34.1874L2.02274 32.7883L1.78652 32.6161C1.13948 32.1446 1.17077 32.2134 0.90204 30.6734C0.762801 29.8755 0.624263 28.7044 0.594177 28.0709C0.540707 26.9451 0.544247 26.9137 0.750776 26.6778L0.962076 26.4364L1.4891 26.8893C1.77896 27.1384 2.03036 27.2995 2.04776 27.2473C2.12675 27.0103 1.8915 24.1548 1.76357 23.7978C1.68735 23.585 1.62499 23.2926 1.62499 23.1478C1.62499 23.003 1.4805 22.6096 1.30391 22.2736L0.982839 21.6625L1.08975 20.5753C1.23121 19.1367 1.05222 18.0795 0.451258 16.8041L0.180552 16.2296L0.35238 14.8048L0.524209 13.3799L0.338497 12.6393L0.152786 11.8986L0.369606 11.0716L0.586425 10.2446L0.338984 9.43793L0.091542 8.63128L0.394226 7.79004C0.69098 6.96529 0.696813 6.92196 0.6919 5.57879C0.686401 4.06746 0.523953 3.08423 0.214931 2.69137C-0.054246 2.34917 -0.011289 2.11355 0.387552 1.74453C0.582006 1.56461 0.741105 1.33946 0.741105 1.24419C0.741105 1.09504 0.805565 1.07002 1.20514 1.06405C1.46036 1.06026 2.24592 0.990644 2.95081 0.909374L4.23245 0.761621L5.91182 1.00612C7.58928 1.25035 7.59384 1.25052 9.89142 1.15268L12.1916 1.05473L12.7378 1.38006L13.2839 1.7054L15.5199 1.67245L17.7559 1.6395L18.5072 1.36762C18.9204 1.21809 19.5767 0.952601 19.9656 0.77764C20.3545 0.602679 21.0515 0.358772 21.5145 0.235624L22.3563 0.0117188L23.4433 0.356035L24.5303 0.700351L25.4692 0.385954L26.408 0.0715577L27.4171 0.403654C27.972 0.586307 29.008 1.03497 29.7192 1.40069L31.0123 2.06563L32.3693 2.02439C33.3945 1.99323 33.7447 1.95326 33.8018 1.86091C33.8433 1.79368 33.9689 1.40493 34.0809 0.99704L34.2845 0.255415L35.5661 0.298755C36.5227 0.331105 37.3813 0.435587 38.9517 0.710726L41.0556 1.07935L41.6033 0.860871C41.9046 0.740706 42.4721 0.59868 42.8646 0.545257C43.5301 0.454667 43.6432 0.464637 44.544 0.693262C45.3898 0.907943 45.6745 0.938209 46.8356 0.936871C47.5648 0.936031 48.3249 0.90662 48.5248 0.871511C48.8695 0.810931 48.9257 0.83488 49.627 1.34131C50.0334 1.63481 50.3949 1.92172 50.4302 1.9789C50.4654 2.03607 50.5389 2.3465 50.5933 2.66875L50.6921 3.25466L50.2444 4.09262C49.9981 4.5535 49.7967 4.97061 49.7967 5.01953C49.7967 5.06845 49.8945 5.15304 50.0141 5.20752C50.1336 5.26199 50.3386 5.46857 50.4697 5.66659L50.708 6.02661L50.65 10.8629C50.6182 13.5229 50.5663 15.8937 50.535 16.1313L50.478 16.5634L49.7489 16.5119L49.0198 16.4605L48.96 16.8592C48.9271 17.0786 48.9002 17.4824 48.9002 17.7566C48.9002 18.1629 48.8368 18.3777 48.5583 18.9156L48.2163 19.5759L48.4054 19.8473C48.5094 19.9965 48.8714 20.4066 49.2097 20.7586L49.8249 21.3986L49.6384 22.0844L49.452 22.7703L49.6736 24.2287C49.9394 25.9769 49.9173 26.4189 49.4887 27.9364C49.3178 28.5415 49.178 29.1052 49.178 29.1889C49.178 29.3464 49.2973 29.3866 50.084 29.4945C50.4353 29.5427 50.504 29.5829 50.5049 29.7409C50.5055 29.8448 50.5629 32.0776 50.6326 34.7027C50.8614 43.3274 50.8827 45.2099 50.7731 47.1639C50.7159 48.1839 50.6541 49.0334 50.6357 49.0518C50.6172 49.0703 49.914 48.7896 49.0727 48.4285L47.543 47.772L46.8817 48.0595C46.2027 48.3548 46.1346 48.4308 46.0425 48.9971C45.9814 49.3724 46.0258 49.3541 44.3479 49.6973L43.3627 49.8988L42.4034 49.5769C41.5137 49.2783 41.3894 49.2585 40.6927 49.3031C40.1669 49.3368 39.8093 49.3126 39.5013 49.2219C39.0614 49.0926 39.0608 49.0928 38.32 49.4334L37.5788 49.7742L34.8268 49.7718C31.9286 49.7693 31.3327 49.8139 29.3348 50.1829C27.9565 50.4374 27.472 50.4323 25.0563 50.1373L23.7831 49.9818L22.8908 50.1849C22.4001 50.2965 21.8991 50.3874 21.7776 50.3869C21.6329 50.3862 21.3036 50.1705 20.8233 49.7615ZM15.461 41.9529C17.5876 41.152 19.3402 40.4841 19.3556 40.4687C19.3833 40.4411 11.0634 32.3708 9.96007 31.355C9.64982 31.0693 9.37789 30.8537 9.35579 30.8758C9.33368 30.8979 8.65745 32.7027 7.85305 34.8865C6.96706 37.2918 6.41812 38.9016 6.46054 38.9702C6.51404 39.0566 11.522 43.395 11.5816 43.4065C11.5887 43.4079 13.3345 42.7537 15.461 41.9529ZM44.0553 37.5312C45.1607 34.8574 46.0396 32.644 46.0084 32.6125C45.9656 32.5692 25.2072 18.5497 10.6696 8.74577L9.50534 7.96062L7.59649 8.81988C6.54662 9.29248 5.70157 9.72095 5.7186 9.77204C5.73565 9.82314 12.7666 17.1914 21.3429 26.1461L36.9361 42.4272L39.4908 42.4098L42.0455 42.3924L44.0553 37.5312ZM41.1752 14.5555C41.5418 12.5208 41.8417 10.7882 41.8417 10.7054C41.8417 10.6112 41.3056 10.1774 40.4107 9.54731C39.6236 8.99318 38.9288 8.50868 38.8666 8.47065C38.7536 8.40147 30.6112 10.6028 30.6218 10.6997C30.6289 10.7644 40.4497 18.314 40.4832 18.2804C40.4972 18.2664 40.8086 16.5902 41.1752 14.5555Z" fill="#9B3425"/>
</g>
<defs>
<clipPath id="clip0_5646_24">
<rect width="217.26" height="50.4494" fill="white"/>
</clipPath>
</defs>
</svg>
