<svg width="12" height="13" viewBox="0 0 12 13" fill="none" xmlns="http://www.w3.org/2000/svg">
<path d="M5.98505 0.5C2.86548 0.5 0.300748 2.86749 0 5.90021L3.05981 7.46254C3.36876 7.20344 3.77045 7.04545 4.2079 7.04545H4.22179C4.32842 6.88182 4.45106 6.67704 4.57957 6.46431C4.8475 6.02522 5.14829 5.52884 5.44357 5.14702C5.50919 3.92793 6.52366 2.95455 7.76219 2.95455C9.04447 2.95455 10.0862 3.99364 10.0862 5.27273C10.0862 6.50818 9.11034 7.52013 7.88822 7.58558C7.50545 7.88013 7.01056 8.18023 6.56764 8.44478C6.35438 8.57569 6.14909 8.69797 5.98505 8.80433V8.81818C5.98505 9.79727 5.18943 10.5909 4.2079 10.5909C3.22637 10.5909 2.43076 9.79727 2.43076 8.81818C2.43076 8.77182 2.43336 8.72818 2.4361 8.68182L0.0464578 7.45987C0.508515 10.3181 2.99124 12.5 5.98505 12.5C9.30694 12.5 12 9.81364 12 6.5C12 3.18636 9.30694 0.5 5.98505 0.5ZM7.76219 3.5C6.7834 3.5 5.98505 4.29636 5.98505 5.27273C5.98505 6.24909 6.7834 7.04545 7.76219 7.04545C8.74099 7.04545 9.53934 6.24909 9.53934 5.27273C9.53934 4.29636 8.74099 3.5 7.76219 3.5ZM7.76219 4.04545C8.44298 4.04545 8.99252 4.59364 8.99252 5.27273C8.99252 5.95182 8.44298 6.5 7.76219 6.5C7.08141 6.5 6.53186 5.95182 6.53186 5.27273C6.53186 4.59364 7.08141 4.04545 7.76219 4.04545ZM4.2079 7.59091C3.99191 7.59091 3.78694 7.64554 3.61196 7.74645L4.51976 8.20987C4.85605 8.38169 4.98724 8.79381 4.81773 9.12926C4.6947 9.36381 4.4567 9.5 4.2079 9.5C4.10127 9.5 3.99721 9.47558 3.89605 9.42649L2.98558 8.95987C3.05667 9.57078 3.57633 10.0455 4.2079 10.0455C4.88869 10.0455 5.43823 9.49727 5.43823 8.81818C5.43823 8.13909 4.88869 7.59091 4.2079 7.59091Z" fill="#C0B8B4"/>
</svg>
